<svg id="Capa_1" enable-background="new 0 0 512 512" height="512" viewBox="0 0 512 512" width="512" xmlns="http://www.w3.org/2000/svg"><g><g><g><g><g><g><g><g><g><path d="m512 256c0-141.385-114.615-256-256-256s-256 114.615-256 256c0 91.886 48.42 172.45 121.126 217.609h269.747c72.707-45.159 121.127-125.723 121.127-217.609z" fill="#ffce00"/></g></g></g></g></g></g></g></g><path d="m512 256c0-16.946-1.647-33.507-4.789-49.533l-120.744-120.744-37.19 177.181-177.181-177.181-36.779 387.887h255.557c72.706-45.16 121.126-125.724 121.126-217.61z" fill="#ffa300"/><g><path d="m363.185 73.538c-15.654 0-28.344 12.69-28.344 28.344v66.136h-157.682v-66.136c0-15.654-12.69-28.344-28.344-28.344s-28.344 12.69-28.344 28.344v371.34c39.304 24.574 85.758 38.778 135.529 38.778s96.225-14.204 135.529-38.778v-371.34c0-15.654-12.69-28.344-28.344-28.344z" fill="#00d65b"/></g><g><path d="m391.529 101.882c0-15.654-12.69-28.344-28.344-28.344s-28.344 12.69-28.344 28.344v66.136h-78.721v343.982c49.726-.023 96.136-14.222 135.409-38.777z" fill="#06bf51"/></g><g><circle cx="256" cy="282.696" fill="#fff" r="70.371"/></g><g><path d="m326.371 282.696c0-38.824-31.441-70.302-70.25-70.368v140.736c38.809-.066 70.25-31.544 70.25-70.368z" fill="#e9edf5"/></g><g><circle cx="256" cy="282.696" fill="#707789" r="31.345"/></g><g><path d="m287.345 282.696c0-17.271-13.969-31.276-31.224-31.342v62.683c17.255-.065 31.224-14.07 31.224-31.341z" fill="#555a66"/></g><g><path d="m256 422.059c-37.226 0-72.223-14.496-98.545-40.818l21.213-21.213c20.656 20.656 48.12 32.032 77.332 32.032s56.676-11.376 77.332-32.032l21.213 21.213c-26.322 26.322-61.319 40.818-98.545 40.818z" fill="#fff"/></g><g><path d="m333.332 360.028c-20.628 20.628-48.044 31.999-77.212 32.03v30c37.181-.031 72.131-14.523 98.424-40.817z" fill="#e9edf5"/></g></g></svg>